# xmcd
#
# Track frame offsets:
#	150
#	21823
#	37538
#	54164
#	70357
#	87391
#	105522
#	120626
#	141747
#	158318
#	174251
#	191888
#	208459
#	222630
#	236645
#	249180
#	262632
#	290114
#	302073
#	318523
#
# Disc length: 4445 seconds
#
# Revision: 1
# Processed by: cddbd v1.4PL0 Copyright (c) Steve Scherf et al.
# Submitted via: audiograbber 1.81.01
#
DISCID=1e115b14
DTITLE=Destaque Musical - Show de música ao vivo
DYEAR=2001
DGENRE=Pop
TTITLE0=Amor pra que bye-bye
TTITLE1=A dor desse amor
TTITLE2=Estou só
TTITLE3=Tarde demais
TTITLE4=Desilusão
TTITLE5=Ela não está aqui
TTITLE6=Tá com raiva de mim
TTITLE7=Fonte dos desejos
TTITLE8=Quando o coração se apaixona
TTITLE9=Porque tem que ser assim
TTITLE10=Paixão e Loucura
TTITLE11=Leviana
TTITLE12=Garçom
TTITLE13=Ainda ontem chorei de saudade
TTITLE14=Fio de Cabelo
TTITLE15=Saudades da minha terra
TTITLE16=Pout-Pourri - Adilson Ramos
TTITLE17=Perfídia
TTITLE18=Xote dos Milagres
TTITLE19=Rindo à toa
EXTD=Banda de Seresta da Cidade de Limoeiro do Norte-Ceará
EXTT0=
EXTT1=
EXTT2=
EXTT3=
EXTT4=
EXTT5=
EXTT6=
EXTT7=
EXTT8=
EXTT9=
EXTT10=
EXTT11=
EXTT12=
EXTT13=
EXTT14=
EXTT15=
EXTT16=
EXTT17=
EXTT18=
EXTT19=
PLAYORDER=
